<svg xmlns="http://www.w3.org/2000/svg" viewBox="0 0 1200 780" width="1200" height="780">
<style>
  text { font-family: "Helvetica Neue", Helvetica, Arial, "PingFang SC", "Microsoft YaHei", "SimHei", sans-serif; }
</style>
<defs>
  <marker id="arrow-down" markerWidth="10" markerHeight="7" refX="5" refY="3.5" orient="auto">
    <polygon points="0 0, 10 3.5, 0 7" fill="#c4a55a"/>
  </marker>
  <filter id="cardShadow" x="-2%" y="-4%" width="104%" height="115%">
    <feDropShadow dx="0" dy="2" stdDeviation="4" flood-color="#8b1a1a" flood-opacity="0.08"/>
  </filter>
  <filter id="headerShadow" x="-2%" y="-2%" width="104%" height="108%">
    <feDropShadow dx="0" dy="2" stdDeviation="3" flood-color="#8b0000" flood-opacity="0.25"/>
  </filter>
  <linearGradient id="headerGrad" x1="0%" y1="0%" x2="100%" y2="0%">
    <stop offset="0%" stop-color="#8b1a1a"/>
    <stop offset="20%" stop-color="#b22222"/>
    <stop offset="80%" stop-color="#b22222"/>
    <stop offset="100%" stop-color="#8b1a1a"/>
  </linearGradient>
  <linearGradient id="goldLine" x1="0%" y1="0%" x2="100%" y2="0%">
    <stop offset="0%" stop-color="#c4a55a" stop-opacity="0"/>
    <stop offset="15%" stop-color="#c4a55a" stop-opacity="0.7"/>
    <stop offset="50%" stop-color="#d4b86a"/>
    <stop offset="85%" stop-color="#c4a55a" stop-opacity="0.7"/>
    <stop offset="100%" stop-color="#c4a55a" stop-opacity="0"/>
  </linearGradient>
</defs>
<rect width="1200" height="780" fill="#f9f7f4"/>
<rect x="0" y="0" width="1200" height="108" fill="url(#headerGrad)" filter="url(#headerShadow)"/>
<rect x="100" y="106" width="1000" height="3" rx="1.5" fill="url(#goldLine)"/>
<text x="600" y="46" text-anchor="middle" fill="#ffd700" font-size="26" font-weight="bold" letter-spacing="2">基层智治综合协同平台 · "1+N+1+N" (PFAS) 总体架构</text>
<text x="600" y="78" text-anchor="middle" fill="#e8c86a" font-size="14" letter-spacing="1">1个基础平台（Platform） + N个生态平台（Federation） + 1个AI赋能中心（AI） + N个治理场景（Scenarios）</text>
<rect x="70" y="130" width="1060" height="112" rx="6" fill="#ffffff" stroke="#e0c0c0" stroke-width="1.5" filter="url(#cardShadow)"/>
<rect x="76" y="130" width="1048" height="3" rx="1.5" fill="#b22222"/>
<rect x="70" y="130" width="48" height="112" rx="6" fill="#b22222"/>
<rect x="76" y="130" width="42" height="112" fill="#b22222"/>
<text x="100" y="193.0" text-anchor="middle" fill="#ffffff" font-size="30" font-weight="bold">N</text>
<circle cx="165" cy="172" r="24" fill="#b22222" opacity="0.07"/>
<circle cx="165" cy="172" r="24" fill="none" stroke="#b22222" stroke-width="1.5" opacity="0.2"/>
<text x="165" y="180" text-anchor="middle" fill="#b22222" font-size="21" font-weight="bold">S</text>
<text x="205" y="166" fill="#1a1a1a" font-size="20" font-weight="bold">治理场景</text>
<text x="205" y="188" fill="#aaaaaa" font-size="12">Scenarios</text>
<circle cx="370" cy="172" r="3" fill="#b22222" opacity="0.35"/>
<rect x="390" y="154" width="56" height="32" rx="4" fill="#fef4f4"/>
<text x="418" y="175" text-anchor="middle" fill="#b22222" font-size="14" font-weight="bold">屋顶</text>
<text x="466" y="174" fill="#555555" font-size="14">面向角色的复合应用，通过五大要素判定法快速组装</text>
<line x1="130" y1="204" x2="1110" y2="204" stroke="#eeeeee" stroke-width="1"/>
<text x="138" y="222" fill="#bbbbbb" font-size="11">核心能力</text>
<rect x="200" y="208" width="138" height="22" rx="3" fill="#fafafa" stroke="#e8e8e8" stroke-width="0.8"/>
<text x="269.0" y="221.5" text-anchor="middle" fill="#666666" font-size="11">公安治理</text>
<rect x="350" y="208" width="138" height="22" rx="3" fill="#fafafa" stroke="#e8e8e8" stroke-width="0.8"/>
<text x="419.0" y="221.5" text-anchor="middle" fill="#666666" font-size="11">住建物业</text>
<rect x="500" y="208" width="138" height="22" rx="3" fill="#fafafa" stroke="#e8e8e8" stroke-width="0.8"/>
<text x="569.0" y="221.5" text-anchor="middle" fill="#666666" font-size="11">综治网格员</text>
<rect x="650" y="208" width="138" height="22" rx="3" fill="#fafafa" stroke="#e8e8e8" stroke-width="0.8"/>
<text x="719.0" y="221.5" text-anchor="middle" fill="#666666" font-size="11">街道社区</text>
<rect x="800" y="208" width="138" height="22" rx="3" fill="#fafafa" stroke="#e8e8e8" stroke-width="0.8"/>
<text x="869.0" y="221.5" text-anchor="middle" fill="#666666" font-size="11">E呼即办联动</text>
<rect x="950" y="208" width="138" height="22" rx="3" fill="#fafafa" stroke="#e8e8e8" stroke-width="0.8"/>
<text x="1019.0" y="221.5" text-anchor="middle" fill="#666666" font-size="11">···</text>
<line x1="600" y1="242" x2="600" y2="274" stroke="#c4a55a" stroke-width="1.8" marker-end="url(#arrow-down)"/>
<rect x="70" y="274" width="1060" height="112" rx="6" fill="#ffffff" stroke="#d4b8b8" stroke-width="1.5" filter="url(#cardShadow)"/>
<rect x="76" y="274" width="1048" height="3" rx="1.5" fill="#8b3a3a"/>
<rect x="70" y="274" width="48" height="112" rx="6" fill="#8b3a3a"/>
<rect x="76" y="274" width="42" height="112" fill="#8b3a3a"/>
<text x="100" y="337.0" text-anchor="middle" fill="#ffffff" font-size="30" font-weight="bold">1</text>
<circle cx="165" cy="316" r="24" fill="#8b3a3a" opacity="0.07"/>
<circle cx="165" cy="316" r="24" fill="none" stroke="#8b3a3a" stroke-width="1.5" opacity="0.2"/>
<text x="165" y="324" text-anchor="middle" fill="#8b3a3a" font-size="21" font-weight="bold">A</text>
<text x="205" y="310" fill="#1a1a1a" font-size="20" font-weight="bold">AI赋能中心</text>
<text x="205" y="332" fill="#aaaaaa" font-size="12">AI Engine</text>
<circle cx="370" cy="316" r="3" fill="#8b3a3a" opacity="0.35"/>
<rect x="390" y="298" width="56" height="32" rx="4" fill="#fef7f7"/>
<text x="418" y="319" text-anchor="middle" fill="#8b3a3a" font-size="14" font-weight="bold">大脑</text>
<text x="466" y="318" fill="#555555" font-size="14">贯穿各层的智慧引擎，让知识“自动工作”</text>
<line x1="130" y1="348" x2="1110" y2="348" stroke="#eeeeee" stroke-width="1"/>
<text x="138" y="366" fill="#bbbbbb" font-size="11">核心能力</text>
<rect x="200" y="352" width="138" height="22" rx="3" fill="#fafafa" stroke="#e8e8e8" stroke-width="0.8"/>
<text x="269.0" y="365.5" text-anchor="middle" fill="#666666" font-size="11">智能案例编写</text>
<rect x="350" y="352" width="138" height="22" rx="3" fill="#fafafa" stroke="#e8e8e8" stroke-width="0.8"/>
<text x="419.0" y="365.5" text-anchor="middle" fill="#666666" font-size="11">知识库问答</text>
<rect x="500" y="352" width="138" height="22" rx="3" fill="#fafafa" stroke="#e8e8e8" stroke-width="0.8"/>
<text x="569.0" y="365.5" text-anchor="middle" fill="#666666" font-size="11">制度库校验</text>
<rect x="650" y="352" width="138" height="22" rx="3" fill="#fafafa" stroke="#e8e8e8" stroke-width="0.8"/>
<text x="719.0" y="365.5" text-anchor="middle" fill="#666666" font-size="11">数据洞察预判</text>
<rect x="800" y="352" width="138" height="22" rx="3" fill="#fafafa" stroke="#e8e8e8" stroke-width="0.8"/>
<text x="869.0" y="365.5" text-anchor="middle" fill="#666666" font-size="11">专题Agent</text>
<rect x="950" y="352" width="138" height="22" rx="3" fill="#fafafa" stroke="#e8e8e8" stroke-width="0.8"/>
<text x="1019.0" y="365.5" text-anchor="middle" fill="#666666" font-size="11">语音/OCR</text>
<line x1="600" y1="386" x2="600" y2="418" stroke="#c4a55a" stroke-width="1.8" marker-end="url(#arrow-down)"/>
<rect x="70" y="418" width="1060" height="112" rx="6" fill="#ffffff" stroke="#c0d4e0" stroke-width="1.5" filter="url(#cardShadow)"/>
<rect x="76" y="418" width="1048" height="3" rx="1.5" fill="#2c5f7c"/>
<rect x="70" y="418" width="48" height="112" rx="6" fill="#2c5f7c"/>
<rect x="76" y="418" width="42" height="112" fill="#2c5f7c"/>
<text x="100" y="481.0" text-anchor="middle" fill="#ffffff" font-size="30" font-weight="bold">N</text>
<circle cx="165" cy="460" r="24" fill="#2c5f7c" opacity="0.07"/>
<circle cx="165" cy="460" r="24" fill="none" stroke="#2c5f7c" stroke-width="1.5" opacity="0.2"/>
<text x="165" y="468" text-anchor="middle" fill="#2c5f7c" font-size="21" font-weight="bold">F</text>
<text x="205" y="454" fill="#1a1a1a" font-size="20" font-weight="bold">生态平台</text>
<text x="205" y="476" fill="#aaaaaa" font-size="12">Federation</text>
<circle cx="370" cy="460" r="3" fill="#2c5f7c" opacity="0.35"/>
<rect x="390" y="442" width="56" height="32" rx="4" fill="#f2f6fa"/>
<text x="418" y="463" text-anchor="middle" fill="#2c5f7c" font-size="14" font-weight="bold">插件</text>
<text x="466" y="462" fill="#555555" font-size="14">开放对接市场硬件 + 深度联接政务系统，不做新孤岛</text>
<line x1="130" y1="492" x2="1110" y2="492" stroke="#eeeeee" stroke-width="1"/>
<text x="138" y="510" fill="#bbbbbb" font-size="11">核心能力</text>
<rect x="200" y="496" width="138" height="22" rx="3" fill="#fafafa" stroke="#e8e8e8" stroke-width="0.8"/>
<text x="269.0" y="509.5" text-anchor="middle" fill="#666666" font-size="11">AI眼镜</text>
<rect x="350" y="496" width="138" height="22" rx="3" fill="#fafafa" stroke="#e8e8e8" stroke-width="0.8"/>
<text x="419.0" y="509.5" text-anchor="middle" fill="#666666" font-size="11">无人机</text>
<rect x="500" y="496" width="138" height="22" rx="3" fill="#fafafa" stroke="#e8e8e8" stroke-width="0.8"/>
<text x="569.0" y="509.5" text-anchor="middle" fill="#666666" font-size="11">二维码门牌</text>
<rect x="650" y="496" width="138" height="22" rx="3" fill="#fafafa" stroke="#e8e8e8" stroke-width="0.8"/>
<text x="719.0" y="509.5" text-anchor="middle" fill="#666666" font-size="11">赣政通/赣服通</text>
<rect x="800" y="496" width="138" height="22" rx="3" fill="#fafafa" stroke="#e8e8e8" stroke-width="0.8"/>
<text x="869.0" y="509.5" text-anchor="middle" fill="#666666" font-size="11">E呼即办</text>
<rect x="950" y="496" width="138" height="22" rx="3" fill="#fafafa" stroke="#e8e8e8" stroke-width="0.8"/>
<text x="1019.0" y="509.5" text-anchor="middle" fill="#666666" font-size="11">···</text>
<line x1="600" y1="530" x2="600" y2="562" stroke="#c4a55a" stroke-width="1.8" marker-end="url(#arrow-down)"/>
<rect x="70" y="562" width="1060" height="112" rx="6" fill="#ffffff" stroke="#b0c4de" stroke-width="1.5" filter="url(#cardShadow)"/>
<rect x="76" y="562" width="1048" height="3" rx="1.5" fill="#1a3a5c"/>
<rect x="70" y="562" width="48" height="112" rx="6" fill="#1a3a5c"/>
<rect x="76" y="562" width="42" height="112" fill="#1a3a5c"/>
<text x="100" y="625.0" text-anchor="middle" fill="#ffffff" font-size="30" font-weight="bold">1</text>
<circle cx="165" cy="604" r="24" fill="#1a3a5c" opacity="0.07"/>
<circle cx="165" cy="604" r="24" fill="none" stroke="#1a3a5c" stroke-width="1.5" opacity="0.2"/>
<text x="165" y="612" text-anchor="middle" fill="#1a3a5c" font-size="21" font-weight="bold">P</text>
<text x="205" y="598" fill="#1a1a1a" font-size="20" font-weight="bold">基础平台</text>
<text x="205" y="620" fill="#aaaaaa" font-size="12">Platform</text>
<circle cx="370" cy="604" r="3" fill="#1a3a5c" opacity="0.35"/>
<rect x="390" y="586" width="56" height="32" rx="4" fill="#f2f5fa"/>
<text x="418" y="607" text-anchor="middle" fill="#1a3a5c" font-size="14" font-weight="bold">地基</text>
<text x="466" y="606" fill="#555555" font-size="14">共性能力统一沉淀，让上层场景站在巨人肩膀上</text>
<line x1="130" y1="636" x2="1110" y2="636" stroke="#eeeeee" stroke-width="1"/>
<text x="138" y="654" fill="#bbbbbb" font-size="11">核心能力</text>
<rect x="200" y="640" width="138" height="22" rx="3" fill="#fafafa" stroke="#e8e8e8" stroke-width="0.8"/>
<text x="269.0" y="653.5" text-anchor="middle" fill="#666666" font-size="11">统一门户/身份认证</text>
<rect x="350" y="640" width="138" height="22" rx="3" fill="#fafafa" stroke="#e8e8e8" stroke-width="0.8"/>
<text x="419.0" y="653.5" text-anchor="middle" fill="#666666" font-size="11">数据中台/治理数据湖</text>
<rect x="500" y="640" width="138" height="22" rx="3" fill="#fafafa" stroke="#e8e8e8" stroke-width="0.8"/>
<text x="569.0" y="653.5" text-anchor="middle" fill="#666666" font-size="11">GIS时空底座</text>
<rect x="650" y="640" width="138" height="22" rx="3" fill="#fafafa" stroke="#e8e8e8" stroke-width="0.8"/>
<text x="719.0" y="653.5" text-anchor="middle" fill="#666666" font-size="11">融合通信调度</text>
<rect x="800" y="640" width="138" height="22" rx="3" fill="#fafafa" stroke="#e8e8e8" stroke-width="0.8"/>
<text x="869.0" y="653.5" text-anchor="middle" fill="#666666" font-size="11">低代码引擎</text>
<rect x="950" y="640" width="138" height="22" rx="3" fill="#fafafa" stroke="#e8e8e8" stroke-width="0.8"/>
<text x="1019.0" y="653.5" text-anchor="middle" fill="#666666" font-size="11">AI开放平台</text>
<rect x="538" y="253" width="124" height="18" rx="3" fill="#f9f7f4"/>
<text x="600" y="266" text-anchor="middle" fill="#c4a55a" font-size="11">调用 / 组合</text>
<rect x="538" y="397" width="124" height="18" rx="3" fill="#f9f7f4"/>
<text x="600" y="410" text-anchor="middle" fill="#c4a55a" font-size="11">智能注入 / 赋能</text>
<rect x="538" y="541" width="124" height="18" rx="3" fill="#f9f7f4"/>
<text x="600" y="554" text-anchor="middle" fill="#c4a55a" font-size="11">能力接入 / 联接</text>
<line x1="32" y1="186" x2="32" y2="618" stroke="#d4cfc4" stroke-width="1.5" stroke-dasharray="4,4"/>
<circle cx="32" cy="186" r="6" fill="#b22222"/>
<circle cx="32" cy="186" r="2.5" fill="#ffd700"/>
<circle cx="32" cy="330" r="6" fill="#b22222"/>
<circle cx="32" cy="330" r="2.5" fill="#ffd700"/>
<circle cx="32" cy="474" r="6" fill="#b22222"/>
<circle cx="32" cy="474" r="2.5" fill="#ffd700"/>
<circle cx="32" cy="618" r="6" fill="#b22222"/>
<circle cx="32" cy="618" r="2.5" fill="#ffd700"/>
<rect x="130" y="702" width="940" height="1.8" rx="0.9" fill="url(#goldLine)"/>
<rect x="130" y="718" width="940" height="44" rx="4" fill="#ffffff" stroke="#e5dcc8" stroke-width="1"/>
<text x="600" y="746" text-anchor="middle" fill="#8b1a1a" font-size="15" font-weight="bold">核心理念：赋能而非替代 —— 用标准地址把数据串起来，用AI把重复劳动替掉，用生态把外部能力接进来</text>
<text x="600" y="786" text-anchor="middle" fill="#cccccc" font-size="11">基层智治综合协同平台 · 产品方案书 · 1+N+1+N (PFAS) 架构总览</text>
</svg>