<svg xmlns="http://www.w3.org/2000/svg" viewBox="0 0 1200 980" font-family="Microsoft YaHei, SimHei, sans-serif">
<defs><filter id="s"><feDropShadow dx="0" dy="2" stdDeviation="3" flood-opacity="0.08"/></filter>
<marker id="ad" markerWidth="10" markerHeight="7" refX="9" refY="3.5" orient="auto"><polygon points="0 0,10 3.5,0 7" fill="#2563eb"/></marker>
<marker id="au" markerWidth="10" markerHeight="7" refX="9" refY="3.5" orient="auto"><polygon points="0 0,10 3.5,0 7" fill="#059669"/></marker>
<marker id="apu" markerWidth="10" markerHeight="7" refX="9" refY="3.5" orient="auto"><polygon points="0 0,10 3.5,0 7" fill="#a855f7"/></marker>
</defs>
<rect width="1200" height="980" fill="#ffffff"/>
<text x="600" y="35" text-anchor="middle" font-size="22" font-weight="bold" fill="#1e293b">"1+N+1+N"（PEAS）基层智治综合协同平台 总体架构</text>
<text x="600" y="55" text-anchor="middle" font-size="11" fill="#94a3b8">Platform + Ecology + AI + Scenarios</text>
<rect x="40" y="55" width="1120" height="155" rx="10" fill="#fef2f2" stroke="#ef4444" stroke-width="2" filter="url(#s)"/>
<rect x="40" y="55" width="1120" height="36" rx="10" fill="#ef4444"/>
<rect x="40" y="81" width="1120" height="10" fill="#ef4444"/>
<text x="600" y="79" text-anchor="middle" font-size="16" font-weight="bold" fill="#ffffff">第四层：N个治理场景 (Scenarios) -- "屋顶"</text>
<rect x="70" y="101" width="245" height="78" rx="6" fill="#ffffff" stroke="#fca5a5" stroke-width="1.5" filter="url(#s)"/>
<text x="192" y="122" text-anchor="middle" font-size="14" font-weight="bold" fill="#991b1b">公安治理</text>
<text x="192" y="142" text-anchor="middle" font-size="11" fill="#b91c1c">立体巡防 x 重点管控</text>
<text x="192" y="160" text-anchor="middle" font-size="11" fill="#b91c1c">AI眼镜+无人机+摄像头</text>
<rect x="335" y="101" width="245" height="78" rx="6" fill="#ffffff" stroke="#fca5a5" stroke-width="1.5" filter="url(#s)"/>
<text x="457" y="122" text-anchor="middle" font-size="14" font-weight="bold" fill="#991b1b">住建物业</text>
<text x="457" y="142" text-anchor="middle" font-size="11" fill="#b91c1c">扫码报修 x 基金透明</text>
<text x="457" y="160" text-anchor="middle" font-size="11" fill="#b91c1c">二维码+无人机工地巡查</text>
<rect x="600" y="101" width="245" height="78" rx="6" fill="#ffffff" stroke="#fca5a5" stroke-width="1.5" filter="url(#s)"/>
<text x="722" y="122" text-anchor="middle" font-size="14" font-weight="bold" fill="#991b1b">综治网格</text>
<text x="722" y="142" text-anchor="middle" font-size="11" fill="#b91c1c">语音上报 x AI填单</text>
<text x="722" y="160" text-anchor="middle" font-size="11" fill="#b91c1c">一码共治 x 格友圈协同</text>
<rect x="865" y="101" width="245" height="78" rx="6" fill="#ffffff" stroke="#fca5a5" stroke-width="1.5" filter="url(#s)"/>
<text x="987" y="122" text-anchor="middle" font-size="14" font-weight="bold" fill="#991b1b">街道社区</text>
<text x="987" y="142" text-anchor="middle" font-size="11" fill="#b91c1c">态势一张图 x 民生诉求</text>
<text x="987" y="160" text-anchor="middle" font-size="11" fill="#b91c1c">AI月报 x 便民服务大厅</text>
<rect x="40" y="230" width="1120" height="230" rx="10" fill="#faf5ff" stroke="#a855f7" stroke-width="2" filter="url(#s)"/>
<rect x="40" y="230" width="1120" height="36" rx="10" fill="#a855f7"/>
<rect x="40" y="256" width="1120" height="10" fill="#a855f7"/>
<text x="600" y="254" text-anchor="middle" font-size="16" font-weight="bold" fill="#ffffff">第三层：1个AI赋能中心 (AI) -- 基层治理AI工作台 . "大脑" . 横贯各层</text>
<rect x="60" y="280" width="1080" height="38" rx="6" fill="#ede9fe" stroke="#c084fc" stroke-width="1"/>
<text x="600" y="305" text-anchor="middle" font-size="13" font-weight="bold" fill="#7c3aed">AI运营中心（持续学习层）-- 人工修正|自动标注|模型迭代 | Agent质量看板 | 知识库自动更新 | 减负成效可视化</text>
<rect x="60" y="324" width="1080" height="82" rx="6" fill="#ffffff" stroke="#c084fc" stroke-width="2"/>
<text x="600" y="322" text-anchor="middle" font-size="11" fill="#6b21a8" font-weight="bold">专题Agent工厂 -- "1个场景1个Agent"</text>
<rect x="70" y="336" width="184" height="58" rx="6" fill="#faf5ff" stroke="#d8b4fe" stroke-width="1"/>
<text x="162" y="356" text-anchor="middle" font-size="12" font-weight="bold" fill="#6b21a8">采集Agent</text>
<text x="162" y="376" text-anchor="middle" font-size="10" fill="#6b21a8">口述即录入</text>
<rect x="270" y="336" width="184" height="58" rx="6" fill="#faf5ff" stroke="#d8b4fe" stroke-width="1"/>
<text x="362" y="356" text-anchor="middle" font-size="12" font-weight="bold" fill="#6b21a8">巡查Agent</text>
<text x="362" y="376" text-anchor="middle" font-size="10" fill="#6b21a8">AR+AI大脑</text>
<rect x="470" y="336" width="184" height="58" rx="6" fill="#faf5ff" stroke="#d8b4fe" stroke-width="1"/>
<text x="562" y="356" text-anchor="middle" font-size="12" font-weight="bold" fill="#6b21a8">调解Agent</text>
<text x="562" y="376" text-anchor="middle" font-size="10" fill="#6b21a8">随身法律顾问</text>
<rect x="670" y="336" width="184" height="58" rx="6" fill="#faf5ff" stroke="#d8b4fe" stroke-width="1"/>
<text x="762" y="356" text-anchor="middle" font-size="12" font-weight="bold" fill="#6b21a8">分拨Agent</text>
<text x="762" y="376" text-anchor="middle" font-size="10" fill="#6b21a8">秒级精准派单</text>
<rect x="870" y="336" width="184" height="58" rx="6" fill="#faf5ff" stroke="#d8b4fe" stroke-width="1"/>
<text x="962" y="356" text-anchor="middle" font-size="12" font-weight="bold" fill="#6b21a8">预判Agent</text>
<text x="962" y="376" text-anchor="middle" font-size="10" fill="#6b21a8">治理天气预报</text>
<rect x="60" y="412" width="1080" height="36" rx="6" fill="#ede9fe" stroke="#c084fc" stroke-width="1"/>
<text x="600" y="436" text-anchor="middle" font-size="13" font-weight="bold" fill="#7c3aed">AI能力底座：大模型(LLM) | 语音转写(ASR) | 文字识别(OCR) | 视觉分析(CV) -- 政务云本地化部署，数据不出域</text>
<rect x="40" y="480" width="1120" height="220" rx="10" fill="#f0fdf4" stroke="#22c55e" stroke-width="2" filter="url(#s)"/>
<rect x="40" y="480" width="1120" height="36" rx="10" fill="#22c55e"/>
<rect x="40" y="506" width="1120" height="10" fill="#22c55e"/>
<text x="600" y="504" text-anchor="middle" font-size="16" font-weight="bold" fill="#ffffff">第二层：N个生态平台 (Ecology) -- 7个智能硬件 + 4个本地政务软件 . "插件"</text>
<text x="600" y="526" text-anchor="middle" font-size="11" fill="#166534" font-weight="bold">智能硬件类 (7个)</text>
<rect x="60" y="533" width="124" height="56" rx="6" fill="#ffffff" stroke="#86efac" stroke-width="1.5"/>
<text x="122" y="567" text-anchor="middle" font-size="11" fill="#166534">AI眼镜</text>
<rect x="200" y="533" width="124" height="56" rx="6" fill="#ffffff" stroke="#86efac" stroke-width="1.5"/>
<text x="262" y="567" text-anchor="middle" font-size="11" fill="#166534">无人机自动巡飞</text>
<rect x="340" y="533" width="124" height="56" rx="6" fill="#ffffff" stroke="#86efac" stroke-width="1.5"/>
<text x="402" y="567" text-anchor="middle" font-size="11" fill="#166534">二维码门牌</text>
<rect x="480" y="533" width="124" height="56" rx="6" fill="#ffffff" stroke="#86efac" stroke-width="1.5"/>
<text x="542" y="567" text-anchor="middle" font-size="11" fill="#166534">融合通讯终端</text>
<rect x="620" y="533" width="124" height="56" rx="6" fill="#ffffff" stroke="#86efac" stroke-width="1.5"/>
<text x="682" y="567" text-anchor="middle" font-size="11" fill="#166534">IoT传感器网络</text>
<rect x="760" y="533" width="124" height="56" rx="6" fill="#ffffff" stroke="#86efac" stroke-width="1.5"/>
<text x="822" y="567" text-anchor="middle" font-size="11" fill="#166534">AI摄像头网络</text>
<rect x="900" y="533" width="124" height="56" rx="6" fill="#ffffff" stroke="#86efac" stroke-width="1.5"/>
<text x="962" y="567" text-anchor="middle" font-size="11" fill="#166534">北斗定位关爱终端</text>
<text x="600" y="610" text-anchor="middle" font-size="11" fill="#166534" font-weight="bold">本地政务软件类 (4个)</text>
<rect x="70" y="617" width="250" height="52" rx="6" fill="#ffffff" stroke="#86efac" stroke-width="1.5"/>
<text x="195" y="649" text-anchor="middle" font-size="11" fill="#166534">赣政通 x 任务推送</text>
<rect x="340" y="617" width="250" height="52" rx="6" fill="#ffffff" stroke="#86efac" stroke-width="1.5"/>
<text x="465" y="649" text-anchor="middle" font-size="11" fill="#166534">E呼即办 x 民生诉求</text>
<rect x="610" y="617" width="250" height="52" rx="6" fill="#ffffff" stroke="#86efac" stroke-width="1.5"/>
<text x="735" y="649" text-anchor="middle" font-size="11" fill="#166534">智慧调度指挥系统</text>
<rect x="880" y="617" width="250" height="52" rx="6" fill="#ffffff" stroke="#86efac" stroke-width="1.5"/>
<text x="1005" y="649" text-anchor="middle" font-size="11" fill="#166534">效能评估 x 减负系统</text>
<rect x="40" y="720" width="1120" height="220" rx="10" fill="#eff6ff" stroke="#3b82f6" stroke-width="2" filter="url(#s)"/>
<rect x="40" y="720" width="1120" height="36" rx="10" fill="#3b82f6"/>
<rect x="40" y="746" width="1120" height="10" fill="#3b82f6"/>
<text x="600" y="744" text-anchor="middle" font-size="16" font-weight="bold" fill="#ffffff">第一层：1个基础平台 (Platform) -- 共性能力中台 . "地基"</text>
<rect x="70" y="766" width="250" height="135" rx="8" fill="#ffffff" stroke="#93c5fd" stroke-width="1.5" filter="url(#s)"/>
<rect x="70" y="766" width="250" height="30" rx="8" fill="#dbeafe"/>
<rect x="70" y="786" width="250" height="10" fill="#dbeafe"/>
<text x="195" y="787" text-anchor="middle" font-size="13" font-weight="bold" fill="#1e40af">数据中台与治理数据湖</text>
<text x="195" y="815" text-anchor="middle" font-size="11" fill="#475569">一标三实 x 多源汇聚 x 数据治理</text>
<text x="195" y="835" text-anchor="middle" font-size="11" fill="#475569">数据鲜活度维护 x 数据资产沉淀</text>
<rect x="340" y="766" width="250" height="135" rx="8" fill="#ffffff" stroke="#93c5fd" stroke-width="1.5" filter="url(#s)"/>
<rect x="340" y="766" width="250" height="30" rx="8" fill="#dbeafe"/>
<rect x="340" y="786" width="250" height="10" fill="#dbeafe"/>
<text x="465" y="787" text-anchor="middle" font-size="13" font-weight="bold" fill="#1e40af">时空地理信息GIS底座</text>
<text x="465" y="815" text-anchor="middle" font-size="11" fill="#475569">天地图 x 一张图作战 x 空间分析</text>
<text x="465" y="835" text-anchor="middle" font-size="11" fill="#475569">三维建模 x 统一地址编码</text>
<rect x="610" y="766" width="250" height="135" rx="8" fill="#ffffff" stroke="#93c5fd" stroke-width="1.5" filter="url(#s)"/>
<rect x="610" y="766" width="250" height="30" rx="8" fill="#dbeafe"/>
<rect x="610" y="786" width="250" height="10" fill="#dbeafe"/>
<text x="735" y="787" text-anchor="middle" font-size="13" font-weight="bold" fill="#1e40af">周边 (地址智能推送)</text>
<text x="735" y="815" text-anchor="middle" font-size="11" fill="#475569">扫码得全息画像 x 角色差异化呈现</text>
<text x="735" y="835" text-anchor="middle" font-size="11" fill="#475569">巡查针对性提升60%</text>
<rect x="880" y="766" width="250" height="135" rx="8" fill="#ffffff" stroke="#93c5fd" stroke-width="1.5" filter="url(#s)"/>
<rect x="880" y="766" width="250" height="30" rx="8" fill="#dbeafe"/>
<rect x="880" y="786" width="250" height="10" fill="#dbeafe"/>
<text x="1005" y="787" text-anchor="middle" font-size="13" font-weight="bold" fill="#1e40af">格友圈 / 协同圈</text>
<text x="1005" y="815" text-anchor="middle" font-size="11" fill="#475569">格友圈 x 跨部门协同</text>
<text x="1005" y="835" text-anchor="middle" font-size="11" fill="#475569">邻里圈 x 居民自治</text>
<line x1="1170" y1="230" x2="1170" y2="210" stroke="#a855f7" stroke-width="2" marker-end="url(#apu)" stroke-dasharray="6,3"/>
<rect x="1150" y="214" width="40" height="16" rx="2" fill="#ffffff" opacity="0.95"/>
<text x="1170" y="226" text-anchor="middle" font-size="9" fill="#a855f7">赋能场景</text>
<line x1="1170" y1="460" x2="1170" y2="480" stroke="#a855f7" stroke-width="2" marker-end="url(#apu)" stroke-dasharray="6,3"/>
<rect x="1150" y="462" width="40" height="16" rx="2" fill="#ffffff" opacity="0.95"/>
<text x="1170" y="474" text-anchor="middle" font-size="9" fill="#a855f7">智能注入</text>
<line x1="1100" y1="210" x2="1100" y2="230" stroke="#ef4444" stroke-width="2" marker-end="url(#ad)" stroke-dasharray="6,3"/>
<rect x="1082" y="212" width="36" height="16" rx="2" fill="#ffffff" opacity="0.95"/>
<text x="1100" y="224" text-anchor="middle" font-size="9" fill="#ef4444">调用AI</text>
<line x1="1100" y1="460" x2="1100" y2="480" stroke="#a855f7" stroke-width="2" marker-end="url(#ad)" stroke-dasharray="6,3"/>
<rect x="1082" y="462" width="36" height="16" rx="2" fill="#ffffff" opacity="0.95"/>
<text x="1100" y="474" text-anchor="middle" font-size="9" fill="#a855f7">注入</text>
<line x1="1100" y1="700" x2="1100" y2="720" stroke="#22c55e" stroke-width="2" marker-end="url(#ad)" stroke-dasharray="6,3"/>
<rect x="1082" y="702" width="36" height="16" rx="2" fill="#ffffff" opacity="0.95"/>
<text x="1100" y="714" text-anchor="middle" font-size="9" fill="#22c55e">调用</text>
<line x1="12" y1="720" x2="12" y2="210" stroke="#059669" stroke-width="1.5" marker-end="url(#au)" stroke-dasharray="4,4"/>
<text x="20" y="500" text-anchor="start" font-size="9" fill="#059669" transform="rotate(-90, 20, 500)">数据回流 (底层向上汇聚)</text>
<text x="1185" y="120" text-anchor="middle" font-size="11" fill="#ef4444" font-weight="bold">屋顶</text>
<text x="1185" y="340" text-anchor="middle" font-size="11" fill="#a855f7" font-weight="bold">大脑</text>
<text x="1185" y="590" text-anchor="middle" font-size="11" fill="#22c55e" font-weight="bold">插件</text>
<text x="1185" y="830" text-anchor="middle" font-size="11" fill="#3b82f6" font-weight="bold">地基</text>
<rect x="40" y="955" width="580" height="20" rx="4" fill="#f8fafc" stroke="#e2e8f0" stroke-width="1"/>
<text x="48" y="970" font-size="9" fill="#64748b">图例：</text>
<line x1="88" y1="965" x2="115" y2="965" stroke="#2563eb" stroke-width="1.5" stroke-dasharray="4,2"/>
<text x="120" y="970" font-size="9" fill="#64748b">上层调用下层服务</text>
<line x1="250" y1="965" x2="277" y2="965" stroke="#059669" stroke-width="1.5" stroke-dasharray="3,3"/>
<text x="282" y="970" font-size="9" fill="#64748b">数据回流</text>
<line x1="370" y1="965" x2="397" y2="965" stroke="#a855f7" stroke-width="2" stroke-dasharray="6,3"/>
<text x="402" y="970" font-size="9" fill="#64748b">AI横贯注入</text>
<text x="500" y="970" font-size="9" fill="#64748b">| PEAS：Platform(地基) + Ecology(插件) + AI(大脑) + Scenarios(屋顶)</text>
</svg>