<svg xmlns="http://www.w3.org/2000/svg" viewBox="0 0 1200 950" font-family="Microsoft YaHei, SimHei, sans-serif">
<defs><filter id="s"><feDropShadow dx="0" dy="2" stdDeviation="3" flood-opacity="0.08"/></filter>
<filter id="sd"><feDropShadow dx="0" dy="3" stdDeviation="4" flood-opacity="0.12"/></filter>
<marker id="aup" markerWidth="10" markerHeight="7" refX="9" refY="3.5" orient="auto"><polygon points="0 0,10 3.5,0 7" fill="#059669"/></marker>
<marker id="adn" markerWidth="10" markerHeight="7" refX="9" refY="3.5" orient="auto"><polygon points="0 0,10 3.5,0 7" fill="#2563eb"/></marker>
<marker id="apu" markerWidth="10" markerHeight="7" refX="9" refY="3.5" orient="auto"><polygon points="0 0,10 3.5,0 7" fill="#a855f7"/></marker>
</defs>
<rect width="1200" height="950" fill="#ffffff"/>
<text x="600" y="35" text-anchor="middle" font-size="22" font-weight="bold" fill="#1e293b">"1+N+1+N"（PFAS）基层智治综合协同平台 架构总览</text>
<rect x="40" y="720" width="1120" height="210" rx="12" fill="#eff6ff" stroke="#3b82f6" stroke-width="2.5" filter="url(#sd)"/>
<rect x="40" y="720" width="1120" height="40" rx="12" fill="#3b82f6"/>
<rect x="40" y="748" width="1120" height="12" fill="#3b82f6"/>
<text x="600" y="747" text-anchor="middle" font-size="17" font-weight="bold" fill="#ffffff">1个基础平台（Platform）—— 共性能力中台 · 地基</text>
<rect x="70" y="775" width="250" height="125" rx="8" fill="#ffffff" stroke="#93c5fd" stroke-width="1.5" filter="url(#s)"/>
<rect x="70" y="775" width="250" height="30" rx="8" fill="#dbeafe"/>
<rect x="70" y="795" width="250" height="10" fill="#dbeafe"/>
<text x="195" y="796" text-anchor="middle" font-size="13" font-weight="bold" fill="#1e40af">数据中台与治理数据湖</text>
<text x="195" y="825" text-anchor="middle" font-size="11" fill="#475569">一标三实 · 多源汇聚</text>
<text x="195" y="845" text-anchor="middle" font-size="11" fill="#475569">数据治理 · 鲜活度维护</text>
<text x="195" y="865" text-anchor="middle" font-size="11" fill="#475569">数据资产沉淀</text>
<rect x="350" y="775" width="250" height="125" rx="8" fill="#ffffff" stroke="#93c5fd" stroke-width="1.5" filter="url(#s)"/>
<rect x="350" y="775" width="250" height="30" rx="8" fill="#dbeafe"/>
<rect x="350" y="795" width="250" height="10" fill="#dbeafe"/>
<text x="475" y="796" text-anchor="middle" font-size="13" font-weight="bold" fill="#1e40af">时空地理信息GIS底座</text>
<text x="475" y="825" text-anchor="middle" font-size="11" fill="#475569">天地图 · 一张图作战</text>
<text x="475" y="845" text-anchor="middle" font-size="11" fill="#475569">空间分析 · 三维建模</text>
<text x="475" y="865" text-anchor="middle" font-size="11" fill="#475569">统一地址编码</text>
<rect x="630" y="775" width="250" height="125" rx="8" fill="#ffffff" stroke="#93c5fd" stroke-width="1.5" filter="url(#s)"/>
<rect x="630" y="775" width="250" height="30" rx="8" fill="#dbeafe"/>
<rect x="630" y="795" width="250" height="10" fill="#dbeafe"/>
<text x="755" y="796" text-anchor="middle" font-size="13" font-weight="bold" fill="#1e40af">周边（地址智能推送）</text>
<text x="755" y="825" text-anchor="middle" font-size="11" fill="#475569">扫码得全息画像</text>
<text x="755" y="845" text-anchor="middle" font-size="11" fill="#475569">角色差异化呈现</text>
<text x="755" y="865" text-anchor="middle" font-size="11" fill="#475569">巡查针对性提升60%</text>
<rect x="910" y="775" width="250" height="125" rx="8" fill="#ffffff" stroke="#93c5fd" stroke-width="1.5" filter="url(#s)"/>
<rect x="910" y="775" width="250" height="30" rx="8" fill="#dbeafe"/>
<rect x="910" y="795" width="250" height="10" fill="#dbeafe"/>
<text x="1035" y="796" text-anchor="middle" font-size="13" font-weight="bold" fill="#1e40af">格友圈 / 协同圈</text>
<text x="1035" y="825" text-anchor="middle" font-size="11" fill="#475569">格友圈 · 跨部门协同</text>
<text x="1035" y="845" text-anchor="middle" font-size="11" fill="#475569">邻里圈 · 居民自治</text>
<text x="1035" y="865" text-anchor="middle" font-size="11" fill="#475569">协同周期缩短66%</text>
<text x="1185" y="825" text-anchor="middle" font-size="12" fill="#3b82f6" font-weight="bold">地基</text>
<rect x="40" y="480" width="1120" height="220" rx="12" fill="#f0fdf4" stroke="#22c55e" stroke-width="2.5" filter="url(#sd)"/>
<rect x="40" y="480" width="1120" height="40" rx="12" fill="#22c55e"/>
<rect x="40" y="508" width="1120" height="12" fill="#22c55e"/>
<text x="600" y="507" text-anchor="middle" font-size="17" font-weight="bold" fill="#ffffff">N个生态平台（Federation）—— 7个智能硬件 + 4个本地政务软件 · 插件</text>
<text x="600" y="526" text-anchor="middle" font-size="11" fill="#166534" font-weight="bold">智能硬件类（7个）</text>
<rect x="60" y="532" width="126" height="56" rx="6" fill="#ffffff" stroke="#86efac" stroke-width="1.5"/>
<text x="123" y="560" text-anchor="middle" font-size="10" fill="#166534">AI眼镜</text>
<rect x="200" y="532" width="126" height="56" rx="6" fill="#ffffff" stroke="#86efac" stroke-width="1.5"/>
<text x="263" y="560" text-anchor="middle" font-size="10" fill="#166534">无人机</text>
<text x="263" y="576" text-anchor="middle" font-size="10" fill="#166534">自动巡飞</text>
<rect x="340" y="532" width="126" height="56" rx="6" fill="#ffffff" stroke="#86efac" stroke-width="1.5"/>
<text x="403" y="560" text-anchor="middle" font-size="10" fill="#166534">二维码</text>
<text x="403" y="576" text-anchor="middle" font-size="10" fill="#166534">门牌</text>
<rect x="480" y="532" width="126" height="56" rx="6" fill="#ffffff" stroke="#86efac" stroke-width="1.5"/>
<text x="543" y="560" text-anchor="middle" font-size="10" fill="#166534">融合通讯</text>
<text x="543" y="576" text-anchor="middle" font-size="10" fill="#166534">终端</text>
<rect x="620" y="532" width="126" height="56" rx="6" fill="#ffffff" stroke="#86efac" stroke-width="1.5"/>
<text x="683" y="560" text-anchor="middle" font-size="10" fill="#166534">IoT传感器</text>
<text x="683" y="576" text-anchor="middle" font-size="10" fill="#166534">网络</text>
<rect x="760" y="532" width="126" height="56" rx="6" fill="#ffffff" stroke="#86efac" stroke-width="1.5"/>
<text x="823" y="560" text-anchor="middle" font-size="10" fill="#166534">AI摄像头</text>
<text x="823" y="576" text-anchor="middle" font-size="10" fill="#166534">网络</text>
<rect x="900" y="532" width="126" height="56" rx="6" fill="#ffffff" stroke="#86efac" stroke-width="1.5"/>
<text x="963" y="560" text-anchor="middle" font-size="10" fill="#166534">北斗定位</text>
<text x="963" y="576" text-anchor="middle" font-size="10" fill="#166534">关爱终端</text>
<text x="600" y="598" text-anchor="middle" font-size="11" fill="#166534" font-weight="bold">本地政务软件类（4个）</text>
<rect x="70" y="604" width="250" height="48" rx="6" fill="#ffffff" stroke="#86efac" stroke-width="1.5"/>
<text x="195" y="634" text-anchor="middle" font-size="11" fill="#166534">赣政通 · 任务推送</text>
<rect x="340" y="604" width="250" height="48" rx="6" fill="#ffffff" stroke="#86efac" stroke-width="1.5"/>
<text x="465" y="634" text-anchor="middle" font-size="11" fill="#166534">E呼即办 · 民生诉求</text>
<rect x="610" y="604" width="250" height="48" rx="6" fill="#ffffff" stroke="#86efac" stroke-width="1.5"/>
<text x="735" y="634" text-anchor="middle" font-size="11" fill="#166534">智慧调度指挥系统</text>
<rect x="880" y="604" width="250" height="48" rx="6" fill="#ffffff" stroke="#86efac" stroke-width="1.5"/>
<text x="1005" y="634" text-anchor="middle" font-size="11" fill="#166534">效能评估 · 减负系统</text>
<text x="1185" y="590" text-anchor="middle" font-size="12" fill="#22c55e" font-weight="bold">插件</text>
<rect x="40" y="60" width="1120" height="155" rx="12" fill="#fef2f2" stroke="#ef4444" stroke-width="2.5" filter="url(#sd)"/>
<rect x="40" y="60" width="1120" height="40" rx="12" fill="#ef4444"/>
<rect x="40" y="88" width="1120" height="12" fill="#ef4444"/>
<text x="600" y="87" text-anchor="middle" font-size="17" font-weight="bold" fill="#ffffff">N个治理场景（Scenarios）—— 面向角色 · 面向业务 · 屋顶</text>
<rect x="70" y="110" width="250" height="80" rx="6" fill="#ffffff" stroke="#fca5a5" stroke-width="1.5" filter="url(#s)"/>
<text x="195" y="132" text-anchor="middle" font-size="14" font-weight="bold" fill="#991b1b">公安治理</text>
<text x="195" y="152" text-anchor="middle" font-size="11" fill="#b91c1c">立体巡防 · 重点管控</text>
<text x="195" y="172" text-anchor="middle" font-size="11" fill="#b91c1c">AI眼镜+无人机+摄像头</text>
<rect x="340" y="110" width="250" height="80" rx="6" fill="#ffffff" stroke="#fca5a5" stroke-width="1.5" filter="url(#s)"/>
<text x="465" y="132" text-anchor="middle" font-size="14" font-weight="bold" fill="#991b1b">住建物业</text>
<text x="465" y="152" text-anchor="middle" font-size="11" fill="#b91c1c">扫码报修 · 基金透明</text>
<text x="465" y="172" text-anchor="middle" font-size="11" fill="#b91c1c">二维码+无人机工地巡查</text>
<rect x="610" y="110" width="250" height="80" rx="6" fill="#ffffff" stroke="#fca5a5" stroke-width="1.5" filter="url(#s)"/>
<text x="735" y="132" text-anchor="middle" font-size="14" font-weight="bold" fill="#991b1b">综治网格</text>
<text x="735" y="152" text-anchor="middle" font-size="11" fill="#b91c1c">语音上报 · AI填单</text>
<text x="735" y="172" text-anchor="middle" font-size="11" fill="#b91c1c">一码共治 · 格友圈协同</text>
<rect x="880" y="110" width="250" height="80" rx="6" fill="#ffffff" stroke="#fca5a5" stroke-width="1.5" filter="url(#s)"/>
<text x="1005" y="132" text-anchor="middle" font-size="14" font-weight="bold" fill="#991b1b">街道社区</text>
<text x="1005" y="152" text-anchor="middle" font-size="11" fill="#b91c1c">态势一张图 · 民生诉求</text>
<text x="1005" y="172" text-anchor="middle" font-size="11" fill="#b91c1c">AI月报 · 便民服务大厅</text>
<text x="1185" y="137" text-anchor="middle" font-size="12" fill="#ef4444" font-weight="bold">屋顶</text>
<rect x="1165" y="60" width="22" height="870" rx="4" fill="#faf5ff" stroke="#a855f7" stroke-width="2.5" opacity="0.3"/>
<rect x="1165" y="60" width="22" height="870" rx="4" fill="none" stroke="#a855f7" stroke-width="2.5"/>
<rect x="40" y="235" width="1120" height="225" rx="12" fill="#faf5ff" stroke="#a855f7" stroke-width="2.5" filter="url(#sd)"/>
<rect x="40" y="235" width="1120" height="40" rx="12" fill="#a855f7"/>
<rect x="40" y="263" width="1120" height="12" fill="#a855f7"/>
<text x="600" y="262" text-anchor="middle" font-size="17" font-weight="bold" fill="#ffffff">1个AI赋能中心（AI）—— 基层治理AI工作台 · "大脑" · 横贯各层</text>
<rect x="60" y="285" width="1080" height="42" rx="6" fill="#ede9fe" stroke="#c084fc" stroke-width="1"/>
<text x="600" y="313" text-anchor="middle" font-size="13" font-weight="bold" fill="#7c3aed">AI运营中心（持续学习层）—— 人工修正→自动标注→模型迭代 | Agent质量看板 | 知识库自动更新 | 减负成效可视化</text>
<rect x="60" y="335" width="1080" height="78" rx="6" fill="#ffffff" stroke="#c084fc" stroke-width="2"/>
<text x="600" y="333" text-anchor="middle" font-size="11" fill="#6b21a8" font-weight="bold">专题Agent工厂 —— "1个场景1个Agent"</text>
<rect x="70" y="347" width="184" height="56" rx="6" fill="#faf5ff" stroke="#d8b4fe" stroke-width="1"/>
<text x="162" y="365" text-anchor="middle" font-size="12" font-weight="bold" fill="#6b21a8">采集Agent</text>
<text x="162" y="385" text-anchor="middle" font-size="10" fill="#6b21a8">口述即录入</text>
<rect x="270" y="347" width="184" height="56" rx="6" fill="#faf5ff" stroke="#d8b4fe" stroke-width="1"/>
<text x="362" y="365" text-anchor="middle" font-size="12" font-weight="bold" fill="#6b21a8">巡查Agent</text>
<text x="362" y="385" text-anchor="middle" font-size="10" fill="#6b21a8">AR+AI大脑</text>
<rect x="470" y="347" width="184" height="56" rx="6" fill="#faf5ff" stroke="#d8b4fe" stroke-width="1"/>
<text x="562" y="365" text-anchor="middle" font-size="12" font-weight="bold" fill="#6b21a8">调解Agent</text>
<text x="562" y="385" text-anchor="middle" font-size="10" fill="#6b21a8">随身法律顾问</text>
<rect x="670" y="347" width="184" height="56" rx="6" fill="#faf5ff" stroke="#d8b4fe" stroke-width="1"/>
<text x="762" y="365" text-anchor="middle" font-size="12" font-weight="bold" fill="#6b21a8">分拨Agent</text>
<text x="762" y="385" text-anchor="middle" font-size="10" fill="#6b21a8">秒级精准派单</text>
<rect x="870" y="347" width="184" height="56" rx="6" fill="#faf5ff" stroke="#d8b4fe" stroke-width="1"/>
<text x="962" y="365" text-anchor="middle" font-size="12" font-weight="bold" fill="#6b21a8">预判Agent</text>
<text x="962" y="385" text-anchor="middle" font-size="10" fill="#6b21a8">治理天气预报</text>
<rect x="60" y="421" width="1080" height="36" rx="6" fill="#ede9fe" stroke="#c084fc" stroke-width="1"/>
<text x="600" y="445" text-anchor="middle" font-size="13" font-weight="bold" fill="#7c3aed">AI能力底座：大模型(LLM) | 语音转写(ASR) | 文字识别(OCR) | 视觉分析(CV) —— 政务云本地化部署，数据不出域</text>
<line x1="1160" y1="460" x2="1160" y2="480" stroke="#a855f7" stroke-width="2" marker-end="url(#apu)" stroke-dasharray="6,3"/>
<text x="1168" y="490" font-size="9" fill="#a855f7">智能注入</text>
<line x1="1160" y1="235" x2="1160" y2="215" stroke="#a855f7" stroke-width="2" marker-end="url(#apu)" stroke-dasharray="6,3"/>
<text x="1168" y="225" font-size="9" fill="#a855f7">赋能场景</text>
<line x1="12" y1="930" x2="12" y2="60" stroke="#059669" stroke-width="1.5" marker-end="url(#aup)" stroke-dasharray="4,4"/>
<text x="20" y="480" text-anchor="start" font-size="9" fill="#059669" transform="rotate(-90, 20, 480)">数据回流（底层向上汇聚）</text>
<line x1="1112" y1="215" x2="1112" y2="235" stroke="#ef4444" stroke-width="2" marker-end="url(#adn)" stroke-dasharray="6,3"/>
<rect x="1094" y="217" width="42" height="16" rx="2" fill="#ffffff" opacity="0.95"/>
<text x="1112" y="229" text-anchor="middle" font-size="9" fill="#ef4444">调用</text>
<line x1="1112" y1="460" x2="1112" y2="480" stroke="#a855f7" stroke-width="2" marker-end="url(#adn)" stroke-dasharray="6,3"/>
<rect x="1094" y="462" width="42" height="16" rx="2" fill="#ffffff" opacity="0.95"/>
<text x="1112" y="474" text-anchor="middle" font-size="9" fill="#a855f7">注入</text>
<line x1="1112" y1="700" x2="1112" y2="720" stroke="#22c55e" stroke-width="2" marker-end="url(#adn)" stroke-dasharray="6,3"/>
<rect x="1094" y="702" width="42" height="16" rx="2" fill="#ffffff" opacity="0.95"/>
<text x="1112" y="714" text-anchor="middle" font-size="9" fill="#22c55e">调用</text>
<text x="1194" y="347" text-anchor="middle" font-size="12" fill="#a855f7" font-weight="bold">大脑</text>
<text x="1194" y="363" text-anchor="middle" font-size="9" fill="#a855f7">横贯</text>
<text x="1194" y="377" text-anchor="middle" font-size="9" fill="#a855f7">各层</text>
<rect x="40" y="945" width="1120" height="24" rx="4" fill="#f8fafc" stroke="#e2e8f0" stroke-width="1"/>
<text x="52" y="962" font-size="9" fill="#64748b">图例：</text>
<line x1="92" y1="957" x2="118" y2="957" stroke="#2563eb" stroke-width="1.5" stroke-dasharray="4,2"/>
<text x="124" y="962" font-size="9" fill="#64748b">上层调用下层</text>
<line x1="220" y1="957" x2="246" y2="957" stroke="#059669" stroke-width="1.5" stroke-dasharray="3,3"/>
<text x="252" y="962" font-size="9" fill="#64748b">数据回流</text>
<line x1="320" y1="957" x2="346" y2="957" stroke="#a855f7" stroke-width="2" stroke-dasharray="6,3"/>
<text x="352" y="962" font-size="9" fill="#64748b">AI横贯注入</text>
<text x="460" y="962" font-size="9" fill="#64748b">| PFAS：Platform(地基) + Federation(插件) + AI(大脑·横贯) + Scenarios(屋顶)</text>
</svg>