<svg xmlns="http://www.w3.org/2000/svg" viewBox="0 0 1200 1160" font-family="Microsoft YaHei, SimHei, sans-serif">
<defs>
<filter id="s"><feDropShadow dx="0" dy="2" stdDeviation="3" flood-opacity="0.08"/></filter>
<filter id="sd"><feDropShadow dx="0" dy="3" stdDeviation="4" flood-opacity="0.12"/></filter>
<marker id="adn" markerWidth="10" markerHeight="7" refX="9" refY="3.5" orient="auto"><polygon points="0 0,10 3.5,0 7" fill="#2563eb"/></marker>
<marker id="aup" markerWidth="10" markerHeight="7" refX="9" refY="3.5" orient="auto"><polygon points="0 0,10 3.5,0 7" fill="#059669"/></marker>
<marker id="apu" markerWidth="10" markerHeight="7" refX="9" refY="3.5" orient="auto"><polygon points="0 0,10 3.5,0 7" fill="#a855f7"/></marker>
</defs>
<rect width="1200" height="1160" fill="#ffffff"/>
<text x="600" y="35" text-anchor="middle" font-size="22" font-weight="bold" fill="#1e293b">"1+N+1+N"（PFAS）基层智治综合协同平台 架构总览 V2.0</text>
<rect x="8" y="60" width="42" height="1030" rx="6" fill="#fef3c7" stroke="#f59e0b" stroke-width="2.5" opacity="0.3"/>
<rect x="8" y="60" width="42" height="1030" rx="6" fill="none" stroke="#f59e0b" stroke-width="2.5"/>
<text x="29" y="575" text-anchor="middle" font-size="11" font-weight="bold" fill="#d97706" transform="rotate(-90, 29, 575)">安 全 与 合 规 贯 穿 层</text>
<text x="55" y="155" font-size="8.5" fill="#d97706" font-weight="bold">场景合规</text>
<text x="55" y="169" font-size="7.5" fill="#d97706">个人信息保护</text>
<text x="55" y="400" font-size="8.5" fill="#d97706" font-weight="bold">Agent合规</text>
<text x="55" y="414" font-size="7.5" fill="#d97706">内容过滤 · 闭眼兜底</text>
<text x="55" y="705" font-size="8.5" fill="#d97706" font-weight="bold">信创适配</text>
<text x="55" y="719" font-size="7.5" fill="#d97706">国产CPU / OS / 数据库</text>
<text x="55" y="965" font-size="8.5" fill="#d97706" font-weight="bold">数据安全</text>
<text x="55" y="979" font-size="7.5" fill="#d97706">加密存储 · 不出域 · 等保三级</text>
<rect x="55" y="60" width="1095" height="215" rx="12" fill="#fef2f2" stroke="#ef4444" stroke-width="2.5" filter="url(#sd)"/>
<rect x="55" y="60" width="1095" height="40" rx="12" fill="#ef4444"/>
<rect x="55" y="88" width="1095" height="12" fill="#ef4444"/>
<text x="602" y="87" text-anchor="middle" font-size="17" font-weight="bold" fill="#ffffff">N个治理场景（Scenarios）—— 面向角色 · 面向业务 · 屋顶</text>
<text x="70" y="118" font-size="12" font-weight="bold" fill="#991b1b">"一件事"叙事（响应国家政策趋势）</text>
<rect x="75" y="130" width="255" height="52" rx="6" fill="#ffffff" stroke="#fca5a5" stroke-width="1.5" filter="url(#s)"/>
<text x="202" y="150" text-anchor="middle" font-size="11" font-weight="bold" fill="#991b1b">消防检查一件事</text>
<text x="202" y="168" text-anchor="middle" font-size="9" fill="#b91c1c">扫码 - AR引导 - AI识别 - 自动报告</text>
<rect x="350" y="130" width="255" height="52" rx="6" fill="#ffffff" stroke="#fca5a5" stroke-width="1.5" filter="url(#s)"/>
<text x="477" y="150" text-anchor="middle" font-size="11" font-weight="bold" fill="#991b1b">矛盾纠纷调解一件事</text>
<text x="477" y="168" text-anchor="middle" font-size="9" fill="#b91c1c">扫码 - AI推送法规 - 远程支援 - 签约</text>
<rect x="625" y="130" width="255" height="52" rx="6" fill="#ffffff" stroke="#fca5a5" stroke-width="1.5" filter="url(#s)"/>
<text x="752" y="150" text-anchor="middle" font-size="11" font-weight="bold" fill="#991b1b">独居老人关爱一件事</text>
<text x="752" y="168" text-anchor="middle" font-size="9" fill="#b91c1c">轨迹异常 - 自动任务 - 网格员上门 - 闭环</text>
<rect x="900" y="130" width="255" height="52" rx="6" fill="#ffffff" stroke="#fca5a5" stroke-width="1.5" filter="url(#s)"/>
<text x="1027" y="150" text-anchor="middle" font-size="11" font-weight="bold" fill="#991b1b">违建治理一件事</text>
<text x="1027" y="168" text-anchor="middle" font-size="9" fill="#b91c1c">无人机发现 - AI识别 - 工单 - 核查 - 验证</text>
<text x="70" y="200" font-size="12" font-weight="bold" fill="#991b1b">上饶专属场景（10个 · 三批落地 · 竞争壁垒核心）</text>
<rect x="75" y="214" width="195" height="24" rx="4" fill="#fee2e2" stroke="#fecaca" stroke-width="1"/>
<text x="172" y="230" text-anchor="middle" font-size="9" fill="#991b1b">婺源油菜花人流</text>
<rect x="280" y="214" width="195" height="24" rx="4" fill="#fee2e2" stroke="#fecaca" stroke-width="1"/>
<text x="377" y="230" text-anchor="middle" font-size="9" fill="#991b1b">高铁枢纽交通</text>
<rect x="485" y="214" width="195" height="24" rx="4" fill="#fee2e2" stroke="#fecaca" stroke-width="1"/>
<text x="582" y="230" text-anchor="middle" font-size="9" fill="#991b1b">鄱余万防溺水</text>
<rect x="690" y="214" width="195" height="24" rx="4" fill="#fee2e2" stroke="#fecaca" stroke-width="1"/>
<text x="787" y="230" text-anchor="middle" font-size="9" fill="#991b1b">鄱阳湖禁渔天眼</text>
<rect x="895" y="214" width="195" height="24" rx="4" fill="#fee2e2" stroke="#fecaca" stroke-width="1"/>
<text x="992" y="230" text-anchor="middle" font-size="9" fill="#991b1b">铅山古镇消防+文物</text>
<rect x="75" y="242" width="195" height="24" rx="4" fill="#fee2e2" stroke="#fecaca" stroke-width="1"/>
<text x="172" y="258" text-anchor="middle" font-size="9" fill="#991b1b">弋阳红色治理+振兴</text>
<rect x="280" y="242" width="195" height="24" rx="4" fill="#fee2e2" stroke="#fecaca" stroke-width="1"/>
<text x="377" y="258" text-anchor="middle" font-size="9" fill="#991b1b">信江流域生态治理</text>
<rect x="485" y="242" width="195" height="24" rx="4" fill="#fee2e2" stroke="#fecaca" stroke-width="1"/>
<text x="582" y="258" text-anchor="middle" font-size="9" fill="#991b1b">德兴铜矿安全生产</text>
<rect x="690" y="242" width="195" height="24" rx="4" fill="#fee2e2" stroke="#fecaca" stroke-width="1"/>
<text x="787" y="258" text-anchor="middle" font-size="9" fill="#991b1b">三清山索道山岳救援</text>
<rect x="895" y="242" width="195" height="24" rx="4" fill="#fee2e2" stroke="#fecaca" stroke-width="1"/>
<text x="992" y="258" text-anchor="middle" font-size="9" fill="#991b1b">万年稻作文旅融合</text>
<text x="1145" y="160" text-anchor="middle" font-size="12" fill="#ef4444" font-weight="bold">屋顶</text>
<rect x="55" y="285" width="1095" height="270" rx="12" fill="#faf5ff" stroke="#a855f7" stroke-width="2.5" filter="url(#sd)"/>
<rect x="55" y="285" width="1095" height="40" rx="12" fill="#a855f7"/>
<rect x="55" y="313" width="1095" height="12" fill="#a855f7"/>
<text x="602" y="312" text-anchor="middle" font-size="17" font-weight="bold" fill="#ffffff">1个AI赋能中心（AI）—— 智慧大脑 · 横贯各层 · 辅助决策</text>
<rect x="70" y="333" width="1065" height="28" rx="6" fill="#ede9fe" stroke="#c084fc" stroke-width="1"/>
<text x="602" y="352" text-anchor="middle" font-size="12" font-weight="bold" fill="#7c3aed">核心理念：AI只做建议、不做决定 | 业务决策权永远在一线业务员侧 | Agent = 专题知识库 + 场景Skill</text>
<rect x="70" y="368" width="1065" height="80" rx="6" fill="#ffffff" stroke="#c084fc" stroke-width="2"/>
<text x="602" y="364" text-anchor="middle" font-size="11" fill="#6b21a8" font-weight="bold">专题Agent工厂 —— "1个场景1个Agent"</text>
<rect x="80" y="376" width="200" height="66" rx="6" fill="#faf5ff" stroke="#d8b4fe" stroke-width="1"/>
<text x="180" y="394" text-anchor="middle" font-size="11" font-weight="bold" fill="#6b21a8">采集Agent</text>
<text x="180" y="414" text-anchor="middle" font-size="8" fill="#7c3aed">知识库: 地址标准库 · 数据字典</text>
<text x="180" y="430" text-anchor="middle" font-size="8" fill="#a855f7">Skill: 语音转表单 · OCR识别</text>
<rect x="290" y="376" width="200" height="66" rx="6" fill="#faf5ff" stroke="#d8b4fe" stroke-width="1"/>
<text x="390" y="394" text-anchor="middle" font-size="11" font-weight="bold" fill="#6b21a8">巡查Agent</text>
<text x="390" y="414" text-anchor="middle" font-size="8" fill="#7c3aed">知识库: 消防法规库 · 建筑规范</text>
<text x="390" y="430" text-anchor="middle" font-size="8" fill="#a855f7">Skill: 隐患视觉识别 · AR引导</text>
<rect x="500" y="376" width="200" height="66" rx="6" fill="#faf5ff" stroke="#d8b4fe" stroke-width="1"/>
<text x="600" y="394" text-anchor="middle" font-size="11" font-weight="bold" fill="#6b21a8">调解Agent</text>
<text x="600" y="414" text-anchor="middle" font-size="8" fill="#7c3aed">知识库: 法律条文库 · 案例库</text>
<text x="600" y="430" text-anchor="middle" font-size="8" fill="#a855f7">Skill: 案例检索 · 法规定位</text>
<rect x="710" y="376" width="200" height="66" rx="6" fill="#faf5ff" stroke="#d8b4fe" stroke-width="1"/>
<text x="810" y="394" text-anchor="middle" font-size="11" font-weight="bold" fill="#6b21a8">分拨Agent</text>
<text x="810" y="414" text-anchor="middle" font-size="8" fill="#7c3aed">知识库: 部门职责矩阵 · 分拨记录</text>
<text x="810" y="430" text-anchor="middle" font-size="8" fill="#a855f7">Skill: 事件识别 · 部门匹配</text>
<rect x="920" y="376" width="200" height="66" rx="6" fill="#faf5ff" stroke="#d8b4fe" stroke-width="1"/>
<text x="1020" y="394" text-anchor="middle" font-size="11" font-weight="bold" fill="#6b21a8">预判Agent</text>
<text x="1020" y="414" text-anchor="middle" font-size="8" fill="#7c3aed">知识库: 时序库 · 空间聚类</text>
<text x="1020" y="430" text-anchor="middle" font-size="8" fill="#a855f7">Skill: 周期预测 · 热力分析</text>
<rect x="70" y="455" width="520" height="50" rx="6" fill="#ede9fe" stroke="#c084fc" stroke-width="1"/>
<text x="330" y="474" text-anchor="middle" font-size="11" font-weight="bold" fill="#7c3aed">AI运营中心</text>
<text x="330" y="492" text-anchor="middle" font-size="9" fill="#7c3aed">人工修正 - 自动学习  |  Agent质量看板  |  知识库自动更新  |  减负可视化</text>
<rect x="600" y="455" width="535" height="50" rx="6" fill="#fef3c7" stroke="#f59e0b" stroke-width="1"/>
<text x="867" y="474" text-anchor="middle" font-size="11" font-weight="bold" fill="#d97706">Agent合规控制</text>
<text x="867" y="492" text-anchor="middle" font-size="9" fill="#d97706">建议可溯源  |  内容安全过滤  |  闭眼兜底(准确率小于85%仅建议)  |  决策在业务员  |  法规定期对齐</text>
<rect x="70" y="512" width="1065" height="36" rx="6" fill="#ede9fe" stroke="#c084fc" stroke-width="1"/>
<text x="602" y="535" text-anchor="middle" font-size="12" font-weight="bold" fill="#7c3aed">AI能力底座：大模型(LLM)  |  语音转写(ASR)  |  文字识别(OCR)  |  视觉分析(CV) —— 政务云本地化部署，数据不出域</text>
<text x="1145" y="415" text-anchor="middle" font-size="12" fill="#a855f7" font-weight="bold">大脑</text>
<text x="1145" y="432" text-anchor="middle" font-size="9" fill="#a855f7">横贯</text>
<text x="1145" y="446" text-anchor="middle" font-size="9" fill="#a855f7">各层</text>
<rect x="55" y="565" width="1095" height="320" rx="12" fill="#f0fdf4" stroke="#22c55e" stroke-width="2.5" filter="url(#sd)"/>
<rect x="55" y="565" width="1095" height="40" rx="12" fill="#22c55e"/>
<rect x="55" y="593" width="1095" height="12" fill="#22c55e"/>
<text x="602" y="592" text-anchor="middle" font-size="17" font-weight="bold" fill="#ffffff">N个生态平台（Ecology）—— 能力插件 · 分级分类 · 即插即用</text>
<rect x="70" y="613" width="1065" height="64" rx="6" fill="#dcfce7" stroke="#86efac" stroke-width="1.5"/>
<text x="80" y="632" font-size="11" font-weight="bold" fill="#166534">深度绑定（定制对接 · 身份互信 · 双向同步 · 联合SLA  |  替换成本：高）</text>
<rect x="80" y="639" width="245" height="34" rx="4" fill="#ffffff" stroke="#86efac" stroke-width="1"/>
<text x="92" y="656" font-size="10" font-weight="bold" fill="#166534">赣政通</text>
<text x="215" y="656" font-size="9" fill="#166534">任务推送 · 督查联动</text>
<rect x="340" y="639" width="245" height="34" rx="4" fill="#ffffff" stroke="#86efac" stroke-width="1"/>
<text x="352" y="656" font-size="10" font-weight="bold" fill="#166534">E呼即办</text>
<text x="475" y="656" font-size="9" fill="#166534">12530机制 · 吹哨报到</text>
<rect x="600" y="639" width="245" height="34" rx="4" fill="#ffffff" stroke="#86efac" stroke-width="1"/>
<text x="612" y="656" font-size="10" font-weight="bold" fill="#166534">雪亮工程 / AI摄像头</text>
<text x="735" y="656" font-size="9" fill="#166534">视频复用 · AI叠加分析</text>
<rect x="860" y="639" width="245" height="34" rx="4" fill="#ffffff" stroke="#86efac" stroke-width="1"/>
<text x="872" y="656" font-size="10" font-weight="bold" fill="#166534">二维码门牌</text>
<text x="995" y="656" font-size="9" fill="#166534">统一入口 · 一码共治</text>
<rect x="70" y="691" width="1065" height="66" rx="6" fill="#f0fdf4" stroke="#86efac" stroke-width="1.5"/>
<text x="80" y="710" font-size="11" font-weight="bold" fill="#166534">按需调用（标准化API · 品牌无关化 · 供应商 2家以上互备  |  替换成本：低）</text>
<rect x="80" y="717" width="142" height="34" rx="4" fill="#ffffff" stroke="#86efac" stroke-width="1"/>
<text x="92" y="733" font-size="9.5" font-weight="bold" fill="#166534">AI眼镜</text>
<text x="156" y="733" font-size="8" fill="#166534">解放双手 · 智能巡查</text>
<rect x="230" y="717" width="142" height="34" rx="4" fill="#ffffff" stroke="#86efac" stroke-width="1"/>
<text x="242" y="733" font-size="9.5" font-weight="bold" fill="#166534">无人机</text>
<text x="306" y="733" font-size="8" fill="#166534">自动巡飞 · AI识别</text>
<rect x="380" y="717" width="142" height="34" rx="4" fill="#ffffff" stroke="#86efac" stroke-width="1"/>
<text x="392" y="733" font-size="9.5" font-weight="bold" fill="#166534">IoT传感器</text>
<text x="456" y="733" font-size="8" fill="#166534">烟感 · 水位 · 井盖 · 地灾</text>
<rect x="530" y="717" width="142" height="34" rx="4" fill="#ffffff" stroke="#86efac" stroke-width="1"/>
<text x="542" y="733" font-size="9.5" font-weight="bold" fill="#166534">北斗终端</text>
<text x="606" y="733" font-size="8" fill="#166534">独居老人 · 定位关爱</text>
<rect x="680" y="717" width="142" height="34" rx="4" fill="#ffffff" stroke="#86efac" stroke-width="1"/>
<text x="692" y="733" font-size="9.5" font-weight="bold" fill="#166534">融合通讯</text>
<text x="756" y="733" font-size="8" fill="#166534">公网对讲 · 视频会商</text>
<rect x="830" y="717" width="142" height="34" rx="4" fill="#ffffff" stroke="#86efac" stroke-width="1"/>
<text x="842" y="733" font-size="9.5" font-weight="bold" fill="#166534">智慧调度</text>
<text x="906" y="733" font-size="8" fill="#166534">智能分拨 · 资源优化</text>
<rect x="980" y="717" width="142" height="34" rx="4" fill="#ffffff" stroke="#86efac" stroke-width="1"/>
<text x="992" y="733" font-size="9.5" font-weight="bold" fill="#166534">效能评估</text>
<text x="1056" y="733" font-size="8" fill="#166534">五维画像 · 减负可视化</text>
<rect x="70" y="771" width="1065" height="50" rx="6" fill="#f8fafc" stroke="#d1d5db" stroke-width="1.5" stroke-dasharray="4,3"/>
<text x="80" y="790" font-size="11" font-weight="bold" fill="#64748b">预留扩展（接口预定义 · 条件成熟后逐步引入  |  替换成本：可控）</text>
<rect x="80" y="796" width="245" height="24" rx="4" fill="#ffffff" stroke="#d1d5db" stroke-width="1"/>
<text x="92" y="814" font-size="9.5" font-weight="bold" fill="#64748b">电子地图 · 多源切换</text>
<rect x="340" y="796" width="245" height="24" rx="4" fill="#ffffff" stroke="#d1d5db" stroke-width="1"/>
<text x="352" y="814" font-size="9.5" font-weight="bold" fill="#64748b">AI算法市场 · 第三方模型</text>
<rect x="600" y="796" width="245" height="24" rx="4" fill="#ffffff" stroke="#d1d5db" stroke-width="1"/>
<text x="612" y="814" font-size="9.5" font-weight="bold" fill="#64748b">区块链存证 · 司法链对接</text>
<rect x="860" y="796" width="245" height="24" rx="4" fill="#ffffff" stroke="#d1d5db" stroke-width="1"/>
<text x="872" y="814" font-size="9.5" font-weight="bold" fill="#64748b">碳普惠 · 绿色治理</text>
<rect x="70" y="833" width="1065" height="40" rx="6" fill="#f8fafc" stroke="#e2e8f0" stroke-width="1"/>
<text x="602" y="850" text-anchor="middle" font-size="10" fill="#64748b">数据主权原则：所有N模块数据统一汇聚至Platform数据中台（唯一数据源）—— 部门按需从平台同步 —— 基层只录一次 —— 同步方向"平台 → 部门"</text>
<text x="602" y="865" text-anchor="middle" font-size="9" fill="#94a3b8">联接而非替代  |  品牌无关化  |  安全合规  |  持续扩展（N不固定）</text>
<text x="1145" y="715" text-anchor="middle" font-size="12" fill="#22c55e" font-weight="bold">插件</text>
<rect x="55" y="895" width="1095" height="205" rx="12" fill="#eff6ff" stroke="#3b82f6" stroke-width="2.5" filter="url(#sd)"/>
<rect x="55" y="895" width="1095" height="40" rx="12" fill="#3b82f6"/>
<rect x="55" y="923" width="1095" height="12" fill="#3b82f6"/>
<text x="602" y="922" text-anchor="middle" font-size="17" font-weight="bold" fill="#ffffff">1个基础平台（Platform）—— 统一底座 · 三大引擎 + 两大协同 · 地基</text>
<rect x="75" y="945" width="340" height="76" rx="8" fill="#ffffff" stroke="#93c5fd" stroke-width="1.5" filter="url(#s)"/>
<rect x="75" y="945" width="340" height="22" rx="8" fill="#dbeafe"/>
<rect x="75" y="959" width="340" height="8" fill="#dbeafe"/>
<text x="245" y="961" text-anchor="middle" font-size="11" font-weight="bold" fill="#1e40af">数据中台与治理数据湖</text>
<text x="245" y="982" text-anchor="middle" font-size="9.5" fill="#475569">一标三实 · 多源汇聚</text>
<text x="245" y="998" text-anchor="middle" font-size="9.5" fill="#475569">数据治理 · 鲜活度维护</text>
<text x="245" y="1014" text-anchor="middle" font-size="9.5" fill="#475569">数据资产沉淀</text>
<rect x="437" y="945" width="340" height="76" rx="8" fill="#ffffff" stroke="#93c5fd" stroke-width="1.5" filter="url(#s)"/>
<rect x="437" y="945" width="340" height="22" rx="8" fill="#dbeafe"/>
<rect x="437" y="959" width="340" height="8" fill="#dbeafe"/>
<text x="607" y="961" text-anchor="middle" font-size="11" font-weight="bold" fill="#1e40af">时空地理信息GIS底座</text>
<text x="607" y="982" text-anchor="middle" font-size="9.5" fill="#475569">天地图 · 一张图作战</text>
<text x="607" y="998" text-anchor="middle" font-size="9.5" fill="#475569">空间分析 · 三维建模</text>
<text x="607" y="1014" text-anchor="middle" font-size="9.5" fill="#475569">统一地址编码 · 电子围栏</text>
<rect x="799" y="945" width="340" height="76" rx="8" fill="#ffffff" stroke="#93c5fd" stroke-width="1.5" filter="url(#s)"/>
<rect x="799" y="945" width="340" height="22" rx="8" fill="#dbeafe"/>
<rect x="799" y="959" width="340" height="8" fill="#dbeafe"/>
<text x="969" y="961" text-anchor="middle" font-size="11" font-weight="bold" fill="#1e40af">事件总线引擎（V2新增）</text>
<text x="969" y="982" text-anchor="middle" font-size="9.5" fill="#475569">发现 → 上报 → 分拨 → 处置 → 反馈 → 评价</text>
<text x="969" y="998" text-anchor="middle" font-size="9.5" fill="#475569">分权而非集权 · 全程可追溯</text>
<text x="969" y="1014" text-anchor="middle" font-size="9.5" fill="#475569">弹性扩容（峰值不低于日常5倍）</text>
<rect x="200" y="1037" width="360" height="56" rx="8" fill="#ffffff" stroke="#93c5fd" stroke-width="1.5" filter="url(#s)"/>
<rect x="200" y="1037" width="360" height="22" rx="8" fill="#dbeafe"/>
<rect x="200" y="1051" width="360" height="8" fill="#dbeafe"/>
<text x="380" y="1053" text-anchor="middle" font-size="12" font-weight="bold" fill="#1e40af">周边（地址关联智能推送）</text>
<text x="380" y="1078" text-anchor="middle" font-size="10" fill="#475569">扫码得全息画像 · 角色差异化呈现 · 巡查针对性提升60%</text>
<rect x="590" y="1037" width="360" height="56" rx="8" fill="#ffffff" stroke="#93c5fd" stroke-width="1.5" filter="url(#s)"/>
<rect x="590" y="1037" width="360" height="22" rx="8" fill="#dbeafe"/>
<rect x="590" y="1051" width="360" height="8" fill="#dbeafe"/>
<text x="770" y="1053" text-anchor="middle" font-size="12" font-weight="bold" fill="#1e40af">格友圈 / 协同圈</text>
<text x="770" y="1078" text-anchor="middle" font-size="10" fill="#475569">格友圈 · 跨部门协同  —  邻里圈 · 居民自治  —  协同周期缩短66%</text>
<text x="1145" y="990" text-anchor="middle" font-size="12" fill="#3b82f6" font-weight="bold">地基</text>
<line x1="1120" y1="895" x2="1120" y2="885" stroke="#22c55e" stroke-width="2" marker-end="url(#adn)" stroke-dasharray="6,3"/>
<rect x="1102" y="882" width="42" height="16" rx="2" fill="#ffffff" opacity="0.95"/>
<text x="1120" y="894" text-anchor="middle" font-size="9" fill="#22c55e">调用</text>
<line x1="1120" y1="285" x2="1120" y2="275" stroke="#a855f7" stroke-width="2" marker-end="url(#apu)" stroke-dasharray="6,3"/>
<rect x="1102" y="270" width="42" height="16" rx="2" fill="#ffffff" opacity="0.95"/>
<text x="1120" y="282" text-anchor="middle" font-size="9" fill="#a855f7">赋能</text>
<line x1="1120" y1="555" x2="1120" y2="565" stroke="#a855f7" stroke-width="2" marker-end="url(#adn)" stroke-dasharray="6,3"/>
<rect x="1102" y="555" width="42" height="16" rx="2" fill="#ffffff" opacity="0.95"/>
<text x="1120" y="567" text-anchor="middle" font-size="9" fill="#a855f7">注入</text>
<line x1="54" y1="1100" x2="54" y2="60" stroke="#059669" stroke-width="1.5" marker-end="url(#aup)" stroke-dasharray="4,4"/>
<text x="4" y="580" text-anchor="start" font-size="9" fill="#059669" transform="rotate(-90, 4, 580)">数据回流（底层向上汇聚）</text>
<rect x="55" y="1115" width="1095" height="40" rx="6" fill="#f8fafc" stroke="#e2e8f0" stroke-width="1"/>
<text x="70" y="1130" font-size="9" fill="#64748b" font-weight="bold">图例：</text>
<line x1="108" y1="1126" x2="132" y2="1126" stroke="#2563eb" stroke-width="1.5" stroke-dasharray="4,2"/>
<text x="137" y="1130" font-size="8.5" fill="#64748b">上层调用下层</text>
<line x1="230" y1="1126" x2="254" y2="1126" stroke="#059669" stroke-width="1.5" stroke-dasharray="3,3"/>
<text x="259" y="1130" font-size="8.5" fill="#64748b">数据回流</text>
<line x1="322" y1="1126" x2="346" y2="1126" stroke="#a855f7" stroke-width="2" stroke-dasharray="6,3"/>
<text x="351" y="1130" font-size="8.5" fill="#64748b">AI横贯注入</text>
<rect x="425" y="1121" width="14" height="10" rx="2" fill="#fef3c7" stroke="#f59e0b" stroke-width="1"/>
<text x="445" y="1130" font-size="8.5" fill="#64748b">安全与合规贯穿层（数据安全 · Agent合规 · 信创适配 · 等保密评）</text>
<text x="70" y="1145" font-size="8.5" fill="#94a3b8">PFAS：Platform(地基) + Federation(插件) + AI(大脑·横贯) + Scenarios(屋顶)  |  V2新增：事件总线引擎 · N分级分类 · Agent=知识库+Skill · 上饶10场景三批落地</text>
</svg>